<?xml version="1.0" standalone="no"?>
<!DOCTYPE svg PUBLIC "-//W3C//DTD SVG 20010904//EN"
 "http://www.w3.org/TR/2001/REC-SVG-20010904/DTD/svg10.dtd">
<svg version="1.0" xmlns="http://www.w3.org/2000/svg"
 width="512.000000pt" height="512.000000pt" viewBox="0 0 512.000000 512.000000"
 preserveAspectRatio="xMidYMid meet">
<metadata>
Created by potrace 1.11, written by Peter Selinger 2001-2013
</metadata>
<g transform="translate(0.000000,512.000000) scale(0.100000,-0.100000)"
fill="#000000" stroke="none">
<path d="M367 4679 c-114 -18 -241 -105 -300 -207 -71 -122 -67 -20 -66 -1581
0 -868 4 -1425 10 -1456 35 -181 184 -323 369 -351 45 -8 3422 -12 3415 -5 -2
2 -36 14 -75 27 -138 47 -273 127 -374 221 l-54 51 -1440 -1 c-1398 0 -1441 0
-1472 19 -18 10 -42 32 -54 47 l-21 28 -3 1400 c-2 1396 -2 1400 19 1440 14
28 32 46 59 58 36 16 164 17 2038 17 l2001 -1 28 -21 c15 -12 37 -36 47 -54
18 -31 19 -61 19 -631 l0 -600 56 -30 c51 -27 137 -88 216 -153 l30 -25 -1
717 c-1 394 -4 724 -7 732 -2 8 -7 29 -12 45 -15 58 -64 141 -109 187 -59 60
-123 95 -211 118 -66 17 -173 18 -2065 17 -1097 0 -2017 -4 -2043 -8z"/>
<path d="M3085 3600 c-55 -9 -98 -33 -134 -77 -105 -127 -20 -323 145 -337
117 -9 217 76 228 194 4 43 -25 124 -56 157 -44 47 -118 73 -183 63z"/>
<path d="M1759 3418 c-71 -123 -116 -201 -136 -238 -15 -26 -556 -971 -580
-1013 -2 -4 436 -6 974 -5 l978 3 3 50 c10 174 64 327 178 503 30 45 54 85 54
88 0 3 -73 95 -162 206 l-162 200 -33 -38 c-18 -22 -142 -173 -275 -336 -134
-163 -245 -297 -248 -297 -4 -1 -95 156 -249 433 -19 34 -90 159 -158 280 -67
120 -123 223 -123 227 0 26 -24 1 -61 -63z"/>
<path d="M3938 3029 c-96 -13 -179 -39 -273 -84 -318 -152 -517 -461 -519
-805 -1 -136 7 -196 40 -299 156 -475 671 -740 1144 -589 180 57 343 171 453
316 69 91 137 226 152 302 2 8 8 35 15 60 17 64 21 263 6 340 -20 104 -45 180
-83 255 -176 349 -557 555 -935 504z m277 -164 c242 -58 423 -200 533 -420 52
-105 75 -206 75 -330 0 -136 -19 -218 -81 -345 -38 -78 -61 -109 -131 -180
-234 -235 -549 -301 -848 -177 -200 82 -376 285 -438 504 -51 182 -25 398 67
563 104 186 294 329 504 379 80 18 253 22 319 6z"/>
<path d="M4675 1339 c-38 -22 -77 -44 -85 -49 -45 -28 -173 -100 -178 -100 -4
-1 -17 -9 -30 -20 l-23 -19 24 -43 c14 -24 63 -108 109 -188 47 -80 96 -166
110 -191 39 -69 52 -89 60 -89 4 0 76 40 160 89 84 49 168 97 187 108 18 10
33 22 33 26 0 7 -292 517 -296 517 0 0 -32 -19 -71 -41z"/>
<path d="M5035 746 c-22 -13 -101 -58 -175 -100 -176 -101 -173 -97 -130 -141
83 -85 219 -94 317 -19 43 33 64 78 68 147 4 57 -13 128 -31 133 -5 2 -27 -7
-49 -20z"/>
</g>
</svg>
